<?xml version="1.0" encoding="utf-8"?>
<!-- Generator: Adobe Illustrator 24.1.2, SVG Export Plug-In . SVG Version: 6.00 Build 0)  -->
<svg version="1.1" id="Layer_1" xmlns="http://www.w3.org/2000/svg" xmlns:xlink="http://www.w3.org/1999/xlink" x="0px" y="0px"
	 viewBox="0 0 214 214" style="enable-background:new 0 0 214 214;" xml:space="preserve">
<style type="text/css">
	.st0{fill:#9A9A9A;}
	.st1{fill:#FFFFFF;}
</style>
<g>
	<rect width="214" height="214"/>
	<g>
		
			<rect x="112.2" y="47.6" transform="matrix(6.123234e-17 -1 1 6.123234e-17 41.9278 199.4635)" class="st0" width="17" height="62.3"/>
		
			<rect x="112.1" y="75.8" transform="matrix(6.123234e-17 -1 1 6.123234e-17 13.6944 227.6969)" class="st0" width="17.2" height="62.3"/>
		
			<rect x="123.6" y="115.7" transform="matrix(6.123234e-17 -1 1 6.123234e-17 -3.5176 267.5815)" class="st1" width="16.8" height="39.7"/>
		<polygon class="st1" points="101.7,135.4 97.7,131.4 97.7,131.4 85.7,119.4 81.7,123.5 89.3,131.1 71.9,131.1 71.9,101.8 
			63.7,101.8 63.7,138.2 63.7,138.2 63.7,139.3 89.9,139.3 81.7,147.4 85.7,151.5 97.7,139.5 97.7,139.5 101.7,135.5 101.7,135.4 		
			"/>
	</g>
</g>
</svg>
