<?xml version="1.0" encoding="utf-8"?>
<!-- Generator: Adobe Illustrator 24.1.2, SVG Export Plug-In . SVG Version: 6.00 Build 0)  -->
<svg version="1.1" id="Layer_1" xmlns="http://www.w3.org/2000/svg" xmlns:xlink="http://www.w3.org/1999/xlink" x="0px" y="0px"
	 viewBox="0 0 214 214" style="enable-background:new 0 0 214 214;" xml:space="preserve">
<style type="text/css">
	.st0{fill:none;}
	.st1{fill:#9A9A9A;}
</style>
<g>
	<rect class="st0" width="214" height="214"/>
	<g>
		<rect x="111.2" y="48" transform="matrix(6.123234e-17 -1 1 6.123234e-17 40.5483 198.8955)" width="17" height="62.3"/>
		
			<rect x="122.1" y="87.3" transform="matrix(6.123234e-17 -1 1 6.123234e-17 23.3363 238.1502)" class="st1" width="17.2" height="40.3"/>
		
			<rect x="122.7" y="116.1" transform="matrix(6.123234e-17 -1 1 6.123234e-17 -4.8971 267.0134)" class="st1" width="16.8" height="39.7"/>
		<polygon points="82.8,131.5 82.8,107.1 90.8,115 94.8,111 82.8,99 82.8,99 78.8,95 78.8,95 78.8,95 74.7,99 74.8,99 62.8,111 
			66.8,115 74.7,107.1 74.7,138.6 74.7,138.6 74.7,139.7 103,139.7 103,131.5 		"/>
	</g>
</g>
</svg>
